<?xml version="1.0" standalone="no"?>
<!DOCTYPE svg PUBLIC "-//W3C//DTD SVG 20010904//EN"
 "http://www.w3.org/TR/2001/REC-SVG-20010904/DTD/svg10.dtd">
<svg version="1.0" xmlns="http://www.w3.org/2000/svg"
 width="128.000000pt" height="128.000000pt" viewBox="0 0 128.000000 128.000000"
 preserveAspectRatio="xMidYMid meet">
<metadata>
Created by potrace 1.14, written by Peter Selinger 2001-2017
</metadata>
<g transform="translate(0.000000,128.000000) scale(0.100000,-0.100000)"
fill="#000000" stroke="none">
<path d="M524 1271 c9 -14 -31 -20 -45 -7 -9 8 -10 8 -5 -1 5 -9 -1 -13 -18
-13 -14 0 -26 -4 -26 -10 0 -5 -5 -10 -11 -10 -5 0 -7 6 -4 13 4 6 1 5 -7 -4
-7 -9 -21 -15 -31 -13 -13 2 -17 -2 -13 -12 5 -12 2 -12 -15 -3 -12 6 -19 7
-15 1 3 -5 -2 -16 -11 -23 -14 -12 -16 -12 -8 1 7 12 5 12 -15 -2 -14 -9 -25
-22 -24 -30 1 -8 -8 -14 -20 -14 -13 1 -20 -4 -18 -13 2 -9 -3 -11 -14 -7 -12
4 -15 2 -10 -9 3 -8 2 -14 -2 -14 -22 4 -31 -3 -25 -18 6 -16 5 -17 -12 -3
-10 8 -16 10 -12 3 10 -16 -2 -43 -19 -43 -13 0 -19 -13 -15 -34 1 -5 -5 -6
-14 -2 -13 5 -15 1 -10 -15 5 -14 3 -19 -3 -15 -6 3 -13 -3 -17 -14 -4 -12
-11 -17 -18 -13 -7 4 -6 -1 2 -10 8 -11 9 -17 3 -17 -6 0 -16 -10 -23 -21 -8
-15 -8 -19 0 -15 6 4 11 3 11 -2 0 -6 -7 -13 -16 -16 -8 -3 -12 -10 -9 -16 3
-5 1 -10 -4 -10 -6 0 -11 -5 -11 -11 0 -5 3 -8 8 -6 4 3 7 -5 7 -18 0 -14 -5
-21 -12 -18 -7 3 -13 1 -14 -3 0 -5 -2 -17 -4 -27 -2 -9 1 -14 7 -11 6 4 5 -2
-1 -15 -15 -28 -13 -193 3 -184 6 4 5 0 -2 -9 -10 -13 -10 -18 -1 -24 8 -5 9
-3 4 6 -5 8 -4 11 1 7 6 -3 10 -26 9 -50 0 -26 4 -43 9 -39 5 3 7 -2 3 -11 -3
-8 1 -21 8 -27 8 -7 12 -16 9 -21 -3 -5 0 -9 5 -9 6 0 11 -7 11 -15 0 -8 4
-15 9 -15 5 0 8 -8 7 -17 0 -11 5 -17 14 -15 8 2 12 0 8 -4 -4 -4 0 -13 10
-21 16 -12 16 -13 -3 -7 -14 4 -11 0 8 -14 16 -11 27 -23 25 -27 -2 -3 8 -13
22 -20 14 -8 21 -14 15 -15 -13 0 83 -90 98 -91 7 -1 16 -1 21 0 5 1 6 -5 2
-14 -3 -9 -2 -13 4 -10 6 3 10 0 10 -7 0 -9 3 -9 10 2 6 10 10 11 10 3 0 -7 7
-13 15 -13 8 0 15 -4 15 -10 0 -5 13 -10 29 -10 16 0 34 -7 41 -15 10 -12 16
-13 27 -4 11 10 12 8 6 -7 -6 -16 -5 -17 9 -6 12 10 17 10 20 1 2 -7 12 -13
21 -15 9 -1 15 2 11 7 -3 5 0 9 5 9 6 0 11 -4 11 -10 0 -12 226 -8 237 4 4 5
3 6 -4 2 -9 -5 -11 -2 -6 10 6 15 7 15 15 -1 9 -15 11 -15 25 2 8 10 12 13 9
8 -2 -6 4 -11 14 -11 15 0 17 3 7 16 -6 8 -7 12 -3 8 5 -4 16 -2 24 5 13 9 14
9 8 -1 -11 -18 5 -15 21 6 8 9 12 11 8 4 -5 -10 -1 -10 19 -1 14 7 23 15 21
20 -3 4 5 5 17 1 21 -5 22 -4 8 14 -8 10 -10 16 -6 12 5 -4 16 -2 24 5 13 10
14 9 7 -3 -8 -13 -6 -13 8 -1 9 7 14 18 10 25 -4 6 2 4 12 -4 11 -9 16 -10 11
-2 -4 7 -1 12 8 12 9 0 16 6 16 14 0 8 7 17 16 20 8 3 12 11 8 17 -4 8 -3 9 4
5 19 -11 35 3 22 19 -9 11 -7 12 10 8 11 -3 20 -2 19 3 -3 18 1 34 9 33 19 -3
25 2 12 11 -13 8 -12 10 3 10 10 0 15 5 12 10 -3 6 -2 10 4 10 6 0 8 7 4 15
-3 10 0 15 8 13 8 -2 13 3 12 10 -2 6 2 12 7 12 5 0 9 3 9 7 -4 22 2 33 14 27
6 -4 9 -4 5 1 -4 4 -3 14 3 21 7 8 6 14 -2 20 -8 5 -4 13 12 26 20 16 20 19 5
14 -18 -6 -19 -5 -4 11 8 10 13 24 10 32 -3 10 0 11 9 5 11 -6 10 -3 -1 11 -8
10 -10 16 -4 12 7 -4 10 34 10 122 -1 105 -3 128 -14 123 -12 -4 -12 -1 -2 18
8 15 8 20 1 16 -6 -4 -11 -1 -11 8 0 8 -6 17 -12 19 -10 4 -10 6 0 6 6 1 12 6
12 12 0 5 -4 7 -10 4 -6 -4 -10 5 -10 19 0 14 -5 26 -11 26 -6 0 -9 9 -6 20 3
11 2 18 -2 16 -4 -3 -13 -1 -21 5 -13 8 -13 9 0 9 10 0 7 5 -8 16 -12 8 -22
22 -22 30 0 8 -5 14 -12 14 -6 0 -8 3 -5 7 4 3 -2 12 -13 20 -11 8 -20 21 -20
29 0 8 -5 14 -11 14 -5 0 -7 -5 -3 -12 4 -7 3 -8 -4 -4 -6 4 -9 13 -6 20 3 7
-3 19 -13 27 -17 13 -17 13 -4 -6 8 -11 2 -8 -13 8 -15 15 -31 27 -37 27 -6 0
-7 6 -3 13 5 7 0 6 -11 -3 -10 -8 -16 -10 -12 -4 4 6 -3 20 -15 30 -12 11 -18
13 -13 5 5 -9 -1 -7 -19 4 -25 17 -38 34 -14 19 7 -4 8 -3 4 5 -6 9 -11 9 -22
0 -10 -8 -14 -8 -14 0 0 6 -7 11 -15 11 -8 0 -15 6 -15 13 0 8 -4 7 -10 -3 -8
-12 -10 -12 -10 5 0 17 -2 17 -10 5 -9 -13 -10 -13 -10 0 0 12 -2 12 -9 2 -7
-11 -9 -10 -15 3 -3 10 -11 13 -18 8 -19 -11 -37 -12 -43 -3 -3 5 4 7 16 5 12
-2 18 -1 15 3 -12 12 -220 10 -228 -2 -5 -8 -8 -7 -8 2 0 6 -5 12 -11 12 -5 0
-8 -4 -5 -9z"/>
</g>
</svg>
